# xmcd
#
# Track frame offsets:
#   150
#   10557
#   23160
#   36207
#   47460
#   59385
#   68010
#   73487
#   81585
#   96135
#   106560
#   118335
#   130185
#
# Disc length: 2030 seconds
#
# Revision: 0
# Processed by: cddbd v1.5.1PL2 Copyright (c) Steve Scherf et al.
# Submitted via: GXTranscoder 2.0.1939
#
DISCID=ab07ec0d
DTITLE=sarriegi - donostiako ihauteriak
DYEAR=1900
DGENRE=Country
TTITLE0=marcha san sebastian
TTITLE1=diana
TTITLE2=iriyarena
TTITLE3=polca de tambores
TTITLE4=reteta1
TTITLE5=retreta2
TTITLE6=comparsa de nodrizas
TTITLE7=comparsa de caldereros
TTITLE8=coro de caldereros
TTITLE9=caldereros en el trabajo
TTITLE10=canto hungaro
TTITLE11=begi urdin bat
TTITLE12=entierro de la sardina
EXTD=
EXTT0=
EXTT1=
EXTT2=
EXTT3=
EXTT4=
EXTT5=
EXTT6=
EXTT7=
EXTT8=
EXTT9=
EXTT10=
EXTT11=
EXTT12=
PLAYORDER=
